<?xml version="1.0" encoding="UTF-8" standalone="no"?>
<svg
   width="173.16406pt"
   height="173.08992pt"
   viewBox="0 0 173.16406 173.08992"
   version="1.2"
   id="svg177"
   sodipodi:docname="cuerdos.svg"
   inkscape:version="1.3 (0e150ed6c4, 2023-07-21)"
   xmlns:inkscape="http://www.inkscape.org/namespaces/inkscape"
   xmlns:sodipodi="http://sodipodi.sourceforge.net/DTD/sodipodi-0.dtd"
   xmlns:xlink="http://www.w3.org/1999/xlink"
   xmlns="http://www.w3.org/2000/svg"
   xmlns:svg="http://www.w3.org/2000/svg">
  <sodipodi:namedview
     id="namedview177"
     pagecolor="#ffffff"
     bordercolor="#000000"
     borderopacity="0.25"
     inkscape:showpageshadow="2"
     inkscape:pageopacity="0.0"
     inkscape:pagecheckerboard="0"
     inkscape:deskcolor="#d1d1d1"
     inkscape:document-units="pt"
     showguides="true"
     inkscape:zoom="0.70710678"
     inkscape:cx="-22.627417"
     inkscape:cy="444.06306"
     inkscape:window-width="1920"
     inkscape:window-height="1026"
     inkscape:window-x="0"
     inkscape:window-y="30"
     inkscape:window-maximized="1"
     inkscape:current-layer="svg177"
     showgrid="false" />
  <defs
     id="defs144">
    <filter
       id="alpha"
       filterUnits="objectBoundingBox"
       x="0"
       y="0"
       width="1"
       height="1">
      <feColorMatrix
         type="matrix"
         in="SourceGraphic"
         values="0 0 0 0 1 0 0 0 0 1 0 0 0 0 1 0 0 0 1 0"
         id="feColorMatrix2" />
    </filter>
    <clipPath
       id="clip6">
      <path
         d="m 76,645 h 147 v 36 H 76 Z m 0,0"
         id="path6" />
    </clipPath>
    <clipPath
       id="clip7">
      <path
         d="m 216.67187,608.85547 -10.38281,3.17578 c -5.03906,1.54297 -8.60937,6.02344 -8.98047,11.27734 l -0.78125,6.23438 -4.01953,-3.92969 c -1.76172,-1.72266 -4.1289,-2.6875 -6.58984,-2.6875 h -23.72266 c -8.89453,-1.09766 -12.0039,-11.4375 -34.33203,-11.4375 -22.32812,0 -22.88672,11.4375 -22.88672,11.4375 H 93.53125 c -11.441406,0 -11.441406,11.44141 -11.441406,11.44141 v 5.60937 h -2.976563 v -15.45703 c 0,-0.78906 -0.566406,-1.51953 -1.351562,-1.58594 -0.882813,-0.0781 -1.621094,0.61328 -1.621094,1.48047 v 42.78125 c 0,0.82031 0.667969,1.48438 1.488281,1.48438 0.820313,0 1.484375,-0.66407 1.484375,-1.48438 v -15.5625 h 2.976563 v 5.60938 c 0,0 0,11.4375 11.441406,11.4375 4.867188,0 10.21875,0.082 15.88281,0.15234 -2.71093,0.62109 -4.6914,3.16406 -4.41015,6.12109 0.24609,2.65625 2.38672,4.83594 5.03906,5.12891 3.45312,0.38281 6.375,-2.30469 6.375,-5.67969 0,-2.67578 -1.83984,-4.91797 -4.32031,-5.53906 47.54687,0.50781 115.04296,-0.89844 110.54687,-57.375 -0.0234,-0.29687 -0.23828,-0.66016 -0.54687,-1.03906 -0.95704,-1.19141 -2.40235,-1.82422 -3.89063,-1.82422 -0.51172,0 -1.03125,0.0742 -1.53516,0.23047"
         id="path7" />
    </clipPath>
    <mask
       id="mask1">
      <g
         filter="url(#alpha)"
         id="g7">
        <rect
           x="0"
           y="0"
           width="299"
           height="772"
           style="fill:#000000;fill-opacity:0.100006;stroke:none"
           id="rect7" />
      </g>
    </mask>
    <clipPath
       id="clip9">
      <path
         d="M 0,0.804688 H 146.76953 V 36 H 0 Z m 0,0"
         id="path8" />
    </clipPath>
    <clipPath
       id="clip10">
      <path
         d="m 140.67187,-36.144531 -10.38281,3.175781 c -5.03906,1.542969 -8.60937,6.023438 -8.98047,11.277344 l -0.78125,6.234375 -4.01953,-3.929688 c -1.76172,-1.722656 -4.1289,-2.6875 -6.58984,-2.6875 H 86.195312 c -8.894531,-1.097656 -12.003906,-11.4375 -34.332031,-11.4375 -22.328125,0 -22.886719,11.4375 -22.886719,11.4375 H 17.53125 c -11.441406,0 -11.441406,11.441407 -11.441406,11.441407 v 5.609374 H 3.113281 v -15.457031 c 0,-0.789062 -0.566406,-1.519531 -1.351562,-1.585937 -0.882813,-0.07813 -1.621094,0.613281 -1.621094,1.480468 v 42.78125 c 0,0.820313 0.667969,1.484376 1.488281,1.484376 0.820313,0 1.484375,-0.664063 1.484375,-1.484376 v -15.5625 h 2.976563 v 5.609376 c 0,0 0,11.4375 11.441406,11.4375 4.867188,0 10.21875,0.08203 15.882812,0.152343 -2.710937,0.621094 -4.691406,3.164063 -4.410156,6.121094 0.246094,2.65625 2.386719,4.835937 5.039063,5.128906 3.453125,0.382813 6.375,-2.304687 6.375,-5.679687 0,-2.675782 -1.839844,-4.917969 -4.320313,-5.539063 47.546875,0.507813 115.042964,-0.898437 110.546874,-57.375 -0.0234,-0.296875 -0.23828,-0.660156 -0.54687,-1.039062 -0.95704,-1.191407 -2.40235,-1.824219 -3.89063,-1.824219 -0.51172,0 -1.03125,0.07422 -1.53516,0.230469"
         id="path9" />
    </clipPath>
    <clipPath
       id="clip8">
      <rect
         x="0"
         y="0"
         width="147"
         height="36"
         id="rect9" />
    </clipPath>
    <g
       id="surface4650"
       clip-path="url(#clip8)">
      <g
         clip-path="url(#clip9)"
         clip-rule="nonzero"
         id="g11">
        <g
           clip-path="url(#clip10)"
           clip-rule="nonzero"
           id="g10">
          <path
             style="fill:#000000;fill-opacity:1;fill-rule:nonzero;stroke:none"
             d="M -1.128906,0.804688 H 146.76953 V 38.515625 H -1.128906 Z m 0,0"
             id="path10" />
        </g>
      </g>
    </g>
  </defs>
  <path
     style="fill:#a8b54f;fill-opacity:1;fill-rule:nonzero;stroke:none;stroke-width:0.828495"
     d="m 158.05746,86.976317 c 0,39.599483 -32.11713,71.703673 -71.732782,71.703673 -39.615666,0 -71.732793,-32.10419 -71.732793,-71.703673 0,-39.599472 32.117127,-71.700426 71.732793,-71.700426 39.615652,0 71.732782,32.100954 71.732782,71.700426"
     id="path153"
     inkscape:export-filename="cuerdos.svg"
     inkscape:export-xdpi="13.305302"
     inkscape:export-ydpi="13.305302" />
  <path
     style="fill:#eeebbd;fill-opacity:1;fill-rule:nonzero;stroke:none;stroke-width:0.828495"
     d="m 58.916373,114.64353 c 0,2.61494 -2.119779,4.73795 -4.737956,4.73795 -2.618177,0 -4.741196,-2.12301 -4.741196,-4.73795 0,-2.61817 2.123019,-4.74119 4.741196,-4.74119 2.618177,0 4.737956,2.12302 4.737956,4.74119"
     id="path154" />
  <path
     style="fill:#e6f0c2;fill-opacity:1;fill-rule:nonzero;stroke:none;stroke-width:0.828495"
     d="m 39.954838,71.995444 c -9.479149,0 -9.479149,9.479152 -9.479149,9.479152 v 18.951834 c 0,0 0,9.47914 9.479149,9.47914 z m 0,0"
     id="path155" />
  <path
     style="fill:#fdfdff;fill-opacity:1;fill-rule:nonzero;stroke:none;stroke-width:0.828495"
     d="m 39.954838,71.995444 h 76.541942 c 2.03888,0 4.00008,0.799365 5.45965,2.22658 l 3.32693,3.255729 0.6505,-5.165153 c 0.31068,-4.35283 3.26543,-8.064878 7.44027,-9.343221 l 8.60211,-2.631118 c 1.62787,-0.49839 3.42725,-0.0066 4.49847,1.317175 0.25243,0.317156 0.43043,0.61814 0.44985,0.864095 4.24927,53.347329 -69.04342,47.386039 -106.969722,47.386039 z m 0,0"
     id="path156" />
  <path
     style="fill:#e6f0c2;fill-opacity:1;fill-rule:nonzero;stroke:none;stroke-width:0.828495"
     d="m 96.84268,71.995444 c -7.369082,-0.909406 -9.945182,-9.475913 -28.443923,-9.475913 -18.498738,0 -18.961536,9.475913 -18.961536,9.475913 z m 0,0"
     id="path157" />
  <path
     style="fill:#d9e3b8;fill-opacity:1;fill-rule:nonzero;stroke:none;stroke-width:0.828495"
     d="m 28.009621,86.121927 h 2.466068 v 9.65715 h -2.466068 z m 0,0"
     id="path158" />
  <path
     style="fill:#eeebbd;fill-opacity:1;fill-rule:nonzero;stroke:none;stroke-width:0.828495"
     d="m 26.779824,109.90234 c 0.679625,0 1.233034,-0.55018 1.233034,-1.2298 V 73.228477 c 0,-0.679623 -0.553409,-1.233033 -1.233034,-1.233033 -0.679624,0 -1.233033,0.55341 -1.233033,1.233033 v 35.444063 c 0,0.67962 0.553409,1.2298 1.233033,1.2298"
     id="path159" />
  <path
     style="fill:#eeebbd;fill-opacity:1;fill-rule:nonzero;stroke:none;stroke-width:0.828495"
     d="M 92.101488,100.42643 H 54.178417 c -2.618177,0 -4.741196,-2.119793 -4.741196,-4.737963 0,-2.61818 2.123019,-4.73796 4.741196,-4.73796 h 37.923071 c 2.61817,0 4.741192,2.11978 4.741192,4.73796 0,2.61817 -2.123022,4.737963 -4.741192,4.737963"
     id="path160" />
  <path
     style="fill:#e6f0c2;fill-opacity:1;fill-rule:nonzero;stroke:none;stroke-width:0.828495"
     d="m 25.546791,73.228477 h 2.46283 v 2.841481 h -2.46283 z m 0,0"
     id="path161" />
  <path
     style="fill:#e6f0c2;fill-opacity:1;fill-rule:nonzero;stroke:none;stroke-width:0.828495"
     d="m 25.546791,105.83106 h 2.46283 v 2.84148 h -2.46283 z m 0,0"
     id="path162" />
  <g
     clip-path="url(#clip6)"
     clip-rule="nonzero"
     id="g163"
     transform="matrix(0.8284951,0,0,0.8284951,-37.535344,-444.0955)">
    <g
       clip-path="url(#clip7)"
       clip-rule="nonzero"
       id="g162">
      <use
         xlink:href="#surface4650"
         transform="translate(76,645)"
         mask="url(#mask1)"
         id="use162" />
    </g>
  </g>
</svg>
