<?xml version="1.0" encoding="UTF-8" standalone="no"?>
<!-- Created with Inkscape (http://www.inkscape.org/) -->

<svg
   width="488.0459mm"
   height="488.37387mm"
   viewBox="0 0 488.0459 488.37386"
   version="1.1"
   id="svg5"
   xml:space="preserve"
   inkscape:export-filename="crdsin.svg"
   inkscape:export-xdpi="8.5328121"
   inkscape:export-ydpi="8.5328121"
   inkscape:version="1.2.2 (b0a8486541, 2022-12-01)"
   sodipodi:docname="cuerd.svg"
   xmlns:inkscape="http://www.inkscape.org/namespaces/inkscape"
   xmlns:sodipodi="http://sodipodi.sourceforge.net/DTD/sodipodi-0.dtd"
   xmlns="http://www.w3.org/2000/svg"
   xmlns:svg="http://www.w3.org/2000/svg"><sodipodi:namedview
     id="namedview7"
     pagecolor="#ffffff"
     bordercolor="#000000"
     borderopacity="0.25"
     inkscape:showpageshadow="2"
     inkscape:pageopacity="0.0"
     inkscape:pagecheckerboard="0"
     inkscape:deskcolor="#d1d1d1"
     inkscape:document-units="mm"
     showgrid="false"
     inkscape:zoom="0.15306292"
     inkscape:cx="1365.4515"
     inkscape:cy="623.92642"
     inkscape:window-width="1366"
     inkscape:window-height="696"
     inkscape:window-x="0"
     inkscape:window-y="0"
     inkscape:window-maximized="1"
     inkscape:current-layer="g1217"
     showguides="true"
     inkscape:lockguides="true"><sodipodi:guide
       position="-854.20099,-200.78751"
       orientation="0,-1"
       id="guide1548"
       inkscape:locked="true" /></sodipodi:namedview><defs
     id="defs2"><linearGradient
       id="swatch6"
       inkscape:swatch="solid"><stop
         style="stop-color:#000000;stop-opacity:1;"
         offset="0"
         id="stop6" /></linearGradient></defs><g
     inkscape:label="Capa 1"
     inkscape:groupmode="layer"
     id="layer1"
     transform="translate(-2233.3979,-19.029404)"><g
       inkscape:label="Capa 1"
       id="g1217"
       transform="matrix(2.9604758,0,0,2.9121441,-1299.8666,-5616.0416)"
       inkscape:export-filename="./g1217.svg"
       inkscape:export-xdpi="8.5328121"
       inkscape:export-ydpi="8.5328121"><rect
         style="fill:none;stroke-width:0.0901105"
         id="rect337"
         width="210.21172"
         height="213.70052"
         x="1172.4191"
         y="1911.686"
         ry="0"
         inkscape:export-filename="../../../home/leo/Escritorio/cuerd.svg"
         inkscape:export-xdpi="10.448532"
         inkscape:export-ydpi="10.448532" /><rect
         style="fill:#536c67;stroke-width:0.0771853"
         id="rect179"
         width="163.21895"
         height="167.70251"
         x="1195.1135"
         y="1935.0248"
         ry="82.48233"
         inkscape:export-filename="cuerd.svg"
         inkscape:export-xdpi="11.303644"
         inkscape:export-ydpi="11.303644" /><path
         style="fill:#93aca7;fill-opacity:1;fill-rule:nonzero;stroke:none;stroke-width:0.909652"
         d="m 1246.1343,2047.2281 c 0,2.9129 -2.2939,5.2779 -5.1273,5.2779 -2.8333,0 -5.1309,-2.365 -5.1309,-5.2779 0,-2.9166 2.2976,-5.2816 5.1309,-5.2816 2.8334,0 5.1273,2.365 5.1273,5.2816"
         id="path1185"
         inkscape:export-filename="cuerd.svg"
         inkscape:export-xdpi="8.5328121"
         inkscape:export-ydpi="8.5328121" /><path
         style="fill:#93aca7;fill-opacity:1;fill-rule:nonzero;stroke:none;stroke-width:0.909652"
         d="m 1225.6146,1999.7196 c -10.2582,0 -10.2582,10.5594 -10.2582,10.5594 v 21.1117 c 0,0 0,10.5594 10.2582,10.5594 z m 0,0"
         id="path1187" /><path
         style="fill:#ffffff;fill-opacity:1;fill-rule:nonzero;stroke:none;stroke-width:0.909652"
         d="m 1225.6146,1999.7196 h 82.8318 c 2.2063,0 4.3289,0.8904 5.9083,2.4803 l 3.6003,3.6268 0.704,-5.7538 c 0.3362,-4.849 3.5337,-8.984 8.0516,-10.408 l 9.309,-2.9311 c 1.7617,-0.5551 3.7089,-0.012 4.8681,1.4674 0.2732,0.3533 0.4658,0.6885 0.4868,0.9625 4.5985,59.4271 -74.717,52.7864 -115.7599,52.7864 z m 0,0"
         id="path1189" /><path
         style="fill:#93aca7;fill-opacity:1;fill-rule:nonzero;stroke:none;stroke-width:0.909652"
         d="m 1287.1772,1999.7196 c -7.9747,-1.0132 -10.7624,-10.5559 -30.7813,-10.5559 -20.0189,0 -20.5198,10.5559 -20.5198,10.5559 z m 0,0"
         id="path1191" /><path
         style="fill:#93aca7;fill-opacity:1;fill-rule:nonzero;stroke:none;stroke-width:0.909652"
         d="m 1212.6878,2015.456 h 2.6686 v 10.7577 h -2.6686 z m 0,0"
         id="path1193" /><path
         style="fill:#93aca7;fill-opacity:1;fill-rule:nonzero;stroke:none;stroke-width:0.909652"
         d="m 1211.3569,2041.9465 c 0.7354,0 1.3344,-0.6128 1.3344,-1.3699 v -39.4834 c 0,-0.7572 -0.599,-1.3736 -1.3344,-1.3736 -0.7355,0 -1.3344,0.6164 -1.3344,1.3736 v 39.4834 c 0,0.7571 0.5989,1.3699 1.3344,1.3699"
         id="path1195" /><path
         style="fill:#93aca7;fill-opacity:1;fill-rule:nonzero;stroke:none;stroke-width:0.909652"
         d="m 1282.0464,2031.3907 h -41.0394 c -2.8333,0 -5.1309,-2.3613 -5.1309,-5.278 0,-2.9164 2.2976,-5.2779 5.1309,-5.2779 h 41.0394 c 2.8333,0 5.1308,2.3615 5.1308,5.2779 0,2.9167 -2.2975,5.278 -5.1308,5.278"
         id="path1197" /><path
         style="fill:#b7c8c4;fill-opacity:1;fill-rule:nonzero;stroke:none;stroke-width:0.909652"
         d="m 1210.0225,2001.0932 h 2.6653 v 3.1652 h -2.6653 z m 0,0"
         id="path1199" /><path
         style="fill:#b7c8c4;fill-opacity:1;fill-rule:nonzero;stroke:none;stroke-width:0.909652"
         d="m 1210.0225,2037.4112 h 2.6653 v 3.1654 h -2.6653 z m 0,0"
         id="path1201" /><rect
         style="fill:none;stroke-width:0.0901105"
         id="rect622"
         width="185.3394"
         height="192.19801"
         x="1184.2487"
         y="1922.8591" /><rect
         style="fill:none;stroke-width:0.0901105"
         id="rect642"
         width="194.30933"
         height="197.17082"
         x="1178.9459"
         y="1920.5193" /></g><rect
       style="fill:none;stroke:#000000;stroke-width:0.264583;stroke-opacity:0"
       id="rect798"
       width="653.92346"
       height="34.265957"
       x="2233.532"
       y="250.02473" /><rect
       style="fill:none;stroke:#000000;stroke-width:0.26078;stroke-opacity:0"
       id="rect964"
       width="450.52649"
       height="49.636105"
       x="2233.5283"
       y="250.02473" /></g></svg>
