<?xml version="1.0" encoding="UTF-8" standalone="no"?>
<svg
   version="1.1"
   id="layer"
   x="0px"
   y="0px"
   viewBox="-153 -46 16 16"
   xml:space="preserve"
   sodipodi:docname="sourceforge.svg"
   width="16"
   height="16"
   inkscape:version="1.2.2 (b0a8486541, 2022-12-01)"
   xmlns:inkscape="http://www.inkscape.org/namespaces/inkscape"
   xmlns:sodipodi="http://sodipodi.sourceforge.net/DTD/sodipodi-0.dtd"
   xmlns="http://www.w3.org/2000/svg"
   xmlns:svg="http://www.w3.org/2000/svg"
   xmlns:rdf="http://www.w3.org/1999/02/22-rdf-syntax-ns#"
   xmlns:cc="http://creativecommons.org/ns#"
   xmlns:dc="http://purl.org/dc/elements/1.1/"><metadata
   id="metadata15"><rdf:RDF><cc:Work
       rdf:about=""><dc:format>image/svg+xml</dc:format><dc:type
         rdf:resource="http://purl.org/dc/dcmitype/StillImage" /></cc:Work></rdf:RDF></metadata><defs
   id="defs13" /><sodipodi:namedview
   pagecolor="#ffffff"
   bordercolor="#666666"
   borderopacity="1"
   objecttolerance="10"
   gridtolerance="10"
   guidetolerance="10"
   inkscape:pageopacity="0"
   inkscape:pageshadow="2"
   inkscape:window-width="1362"
   inkscape:window-height="706"
   id="namedview11"
   showgrid="false"
   fit-margin-top="0"
   fit-margin-left="0"
   fit-margin-right="0"
   fit-margin-bottom="0"
   inkscape:zoom="17.546013"
   inkscape:cx="8.0075173"
   inkscape:cy="10.515209"
   inkscape:window-x="0"
   inkscape:window-y="0"
   inkscape:window-maximized="1"
   inkscape:current-layer="layer"
   inkscape:showpageshadow="2"
   inkscape:pagecheckerboard="0"
   inkscape:deskcolor="#d1d1d1" />
<style
   type="text/css"
   id="style2">
	.st0{fill:#FF6600;}
</style>
<path
   class="st0"
   d="m -143.99909,-37.556097 c 0,-2.393367 -0.84311,-3.467663 -1.30547,-3.88922 -0.0816,-0.08159 -0.23117,-0.01361 -0.21758,0.108788 0.0816,1.346269 -1.61824,1.686236 -1.61824,3.794031 v 0 0.0136 c 0,1.291874 0.97911,2.338973 2.17579,2.338973 1.19669,0 2.17578,-1.047099 2.17578,-2.338973 v -0.0136 0 c 0,-0.598343 -0.23117,-1.169487 -0.44875,-1.604645 -0.0544,-0.0816 -0.17677,-0.05439 -0.16319,0.02719 0.42158,1.849421 -0.59834,2.964511 -0.59834,1.563848 z m -2.59734,5.045109 c -0.0544,0 -0.10874,-0.0272 -0.14959,-0.068 l -5.56186,-5.561859 c -0.0816,-0.08159 -0.0816,-0.217578 0,-0.299171 l 5.87463,-5.874628 c 0.0408,-0.02719 0.0816,-0.05439 0.136,-0.05439 h 1.68623 c 0.0952,0 0.16319,0.068 0.19038,0.122391 0.0271,0.068 0.0271,0.149587 -0.0544,0.231179 l -5.50746,5.521062 c -0.10874,0.10879 -0.10874,0.285574 0,0.394363 l 4.36517,4.378773 c 0.0815,0.0816 0.0815,0.217578 0,0.299171 l -0.84312,0.843119 c -0.0271,0.0408 -0.0816,0.068 -0.13599,0.068 z m 1.1151,0.965505 c -0.0952,0 -0.16319,-0.068 -0.19039,-0.122391 -0.0271,-0.068 -0.0271,-0.149585 0.0544,-0.231176 l 5.52107,-5.521064 c 0.0544,-0.05439 0.0815,-0.122391 0.0815,-0.20398 0,-0.08159 -0.0271,-0.149586 -0.0815,-0.203981 l -4.37878,-4.378773 c -0.0815,-0.08159 -0.0815,-0.217579 0,-0.299171 l 0.84313,-0.843119 c 0.0408,-0.0408 0.0816,-0.068 0.14958,-0.068 0.0679,0 0.0952,0.0408 0.13598,0.08159 l 5.54826,5.561858 c 0.0408,0.0408 0.0679,0.08159 0.0679,0.149586 0,0.068 -0.0271,0.10879 -0.0679,0.149584 l -5.87463,5.874629 c -0.0408,0.0408 -0.0816,0.068 -0.14958,0.068 z"
   id="path4"
   style="stroke-width:0.135987" />


</svg>
