<?xml version="1.0" encoding="UTF-8" standalone="no"?>
<svg
   width="16"
   height="16"
   version="1.1"
   id="svg14"
   sodipodi:docname="edit-clear-all.svg"
   inkscape:version="1.2.2 (b0a8486541, 2022-12-01)"
   xmlns:inkscape="http://www.inkscape.org/namespaces/inkscape"
   xmlns:sodipodi="http://sodipodi.sourceforge.net/DTD/sodipodi-0.dtd"
   xmlns="http://www.w3.org/2000/svg"
   xmlns:svg="http://www.w3.org/2000/svg">
  <defs
     id="defs18" />
  <sodipodi:namedview
     id="namedview16"
     pagecolor="#ffffff"
     bordercolor="#000000"
     borderopacity="0.25"
     inkscape:showpageshadow="2"
     inkscape:pageopacity="0.0"
     inkscape:pagecheckerboard="0"
     inkscape:deskcolor="#d1d1d1"
     showgrid="false"
     inkscape:zoom="12.661631"
     inkscape:cx="9.2800052"
     inkscape:cy="13.623837"
     inkscape:window-width="1362"
     inkscape:window-height="706"
     inkscape:window-x="0"
     inkscape:window-y="0"
     inkscape:window-maximized="1"
     inkscape:current-layer="svg14" />
  <rect
     width="12.363684"
     height="12.363684"
     x="1.7721741"
     y="1.6803066"
     fill="none"
     stroke="#2454d8"
     stroke-linecap="round"
     stroke-linejoin="round"
     stroke-width="0.475289"
     opacity="0.75"
     rx="0.7135272"
     ry="0.7135272"
     style="paint-order:markers stroke fill"
     id="rect2" />
  <g
     stroke-width="3.78"
     id="g10"
     transform="matrix(0.23776315,0,0,0.23776315,0.3451197,0.25420319)">
    <rect
       width="52"
       height="52"
       x="6.0019999"
       y="5.9980001"
       fill="#90a9ff"
       rx="3.0009999"
       ry="3.0009999"
       style="paint-order:markers stroke fill"
       id="rect4" />
    <path
       d="M 9,5.998 A 2.993,2.993 0 0 0 6.001,9 v 0.998 h 52 V 9 A 2.993,2.993 0 0 0 55,6 Z"
       opacity="0.35"
       style="paint-order:markers stroke fill"
       id="path6" />
    <rect
       width="10.001"
       height="1.999"
       x="26.910999"
       y="7"
       opacity="0.35"
       ry="1.002"
       style="paint-order:stroke markers fill"
       id="rect8" />
  </g>
  <path
     fill="#ffffff"
     d="m 2.7227511,3.8206503 h 3.328684 v 0.4755263 h -3.328684 z m 0,8.0839467 h 1.4265788 v 0.475527 H 2.7227511 Z m 1.9021051,0 h 5.7063158 v 0.475527 H 4.6248562 Z M 2.7227511,10.953545 h 1.4265788 v 0.475526 H 2.7227511 Z m 1.9021051,0 h 6.6573688 v 0.475526 H 4.6248562 Z M 2.7227511,10.002492 h 1.4265788 v 0.475526 H 2.7227511 Z m 1.9021051,0 h 5.7063158 v 0.475526 H 4.6248562 Z M 2.7227511,9.0514396 H 4.1493299 V 9.5269659 H 2.7227511 Z m 1.9021051,0 H 11.282225 V 9.5269659 H 4.6248562 Z M 2.7227511,8.100387 H 4.1493299 V 8.5759133 H 2.7227511 Z m 1.9021051,0 h 4.755263 V 8.5759133 H 4.6248562 Z M 2.7227511,7.1493344 H 4.1493299 V 7.6248607 H 2.7227511 Z m 1.9021051,0 H 12.233277 V 7.6248607 H 4.6248562 Z M 2.7227511,6.1982818 H 4.1493299 V 6.6738081 H 2.7227511 Z m 1.9021051,0 H 13.18433 V 6.6738081 H 4.6248562 Z M 2.7227511,5.2472292 H 4.1493299 V 5.7227555 H 2.7227511 Z m 1.9021051,0 H 10.331172 V 5.7227555 H 4.6248562 Z"
     opacity="0.5"
     id="path12"
     style="stroke-width:0.237763" />
</svg>
