<?xml version="1.0" encoding="UTF-8" standalone="no"?>
<svg
   width="173.16406pt"
   height="173.0899pt"
   viewBox="0 0 173.16406 173.0899"
   version="1.2"
   id="svg177"
   sodipodi:docname="logo.svg"
   inkscape:version="1.3 (0e150ed6c4, 2023-07-21)"
   xmlns:inkscape="http://www.inkscape.org/namespaces/inkscape"
   xmlns:sodipodi="http://sodipodi.sourceforge.net/DTD/sodipodi-0.dtd"
   xmlns:xlink="http://www.w3.org/1999/xlink"
   xmlns="http://www.w3.org/2000/svg"
   xmlns:svg="http://www.w3.org/2000/svg">
  <sodipodi:namedview
     id="namedview177"
     pagecolor="#ffffff"
     bordercolor="#000000"
     borderopacity="0.25"
     inkscape:showpageshadow="2"
     inkscape:pageopacity="0.0"
     inkscape:pagecheckerboard="0"
     inkscape:deskcolor="#d1d1d1"
     inkscape:document-units="pt"
     showguides="true"
     inkscape:zoom="0.70710678"
     inkscape:cx="-22.627417"
     inkscape:cy="444.06306"
     inkscape:window-width="1920"
     inkscape:window-height="1026"
     inkscape:window-x="0"
     inkscape:window-y="30"
     inkscape:window-maximized="1"
     inkscape:current-layer="svg177"
     showgrid="false" />
  <defs
     id="defs144">
    <filter
       id="alpha"
       filterUnits="objectBoundingBox"
       x="0"
       y="0"
       width="1"
       height="1">
      <feColorMatrix
         type="matrix"
         in="SourceGraphic"
         values="0 0 0 0 1 0 0 0 0 1 0 0 0 0 1 0 0 0 1 0"
         id="feColorMatrix2" />
    </filter>
    <clipPath
       id="clip6">
      <path
         d="m 76,645 h 147 v 36 H 76 Z m 0,0"
         id="path6" />
    </clipPath>
    <clipPath
       id="clip7">
      <path
         d="m 216.67187,608.85547 -10.38281,3.17578 c -5.03906,1.54297 -8.60937,6.02344 -8.98047,11.27734 l -0.78125,6.23438 -4.01953,-3.92969 c -1.76172,-1.72266 -4.1289,-2.6875 -6.58984,-2.6875 h -23.72266 c -8.89453,-1.09766 -12.0039,-11.4375 -34.33203,-11.4375 -22.32812,0 -22.88672,11.4375 -22.88672,11.4375 H 93.53125 c -11.441406,0 -11.441406,11.44141 -11.441406,11.44141 v 5.60937 h -2.976563 v -15.45703 c 0,-0.78906 -0.566406,-1.51953 -1.351562,-1.58594 -0.882813,-0.0781 -1.621094,0.61328 -1.621094,1.48047 v 42.78125 c 0,0.82031 0.667969,1.48438 1.488281,1.48438 0.820313,0 1.484375,-0.66407 1.484375,-1.48438 v -15.5625 h 2.976563 v 5.60938 c 0,0 0,11.4375 11.441406,11.4375 4.867188,0 10.21875,0.082 15.88281,0.15234 -2.71093,0.62109 -4.6914,3.16406 -4.41015,6.12109 0.24609,2.65625 2.38672,4.83594 5.03906,5.12891 3.45312,0.38281 6.375,-2.30469 6.375,-5.67969 0,-2.67578 -1.83984,-4.91797 -4.32031,-5.53906 47.54687,0.50781 115.04296,-0.89844 110.54687,-57.375 -0.0234,-0.29687 -0.23828,-0.66016 -0.54687,-1.03906 -0.95704,-1.19141 -2.40235,-1.82422 -3.89063,-1.82422 -0.51172,0 -1.03125,0.0742 -1.53516,0.23047"
         id="path7" />
    </clipPath>
    <mask
       id="mask1">
      <g
         filter="url(#alpha)"
         id="g7">
        <rect
           x="0"
           y="0"
           width="299"
           height="772"
           style="fill:#000000;fill-opacity:0.100006;stroke:none"
           id="rect7" />
      </g>
    </mask>
    <clipPath
       id="clip9">
      <path
         d="M 0,0.804688 H 146.76953 V 36 H 0 Z m 0,0"
         id="path8" />
    </clipPath>
    <clipPath
       id="clip10">
      <path
         d="m 140.67187,-36.144531 -10.38281,3.175781 c -5.03906,1.542969 -8.60937,6.023438 -8.98047,11.277344 l -0.78125,6.234375 -4.01953,-3.929688 c -1.76172,-1.722656 -4.1289,-2.6875 -6.58984,-2.6875 H 86.195312 c -8.894531,-1.097656 -12.003906,-11.4375 -34.332031,-11.4375 -22.328125,0 -22.886719,11.4375 -22.886719,11.4375 H 17.53125 c -11.441406,0 -11.441406,11.441407 -11.441406,11.441407 v 5.609374 H 3.113281 v -15.457031 c 0,-0.789062 -0.566406,-1.519531 -1.351562,-1.585937 -0.882813,-0.07813 -1.621094,0.613281 -1.621094,1.480468 v 42.78125 c 0,0.820313 0.667969,1.484376 1.488281,1.484376 0.820313,0 1.484375,-0.664063 1.484375,-1.484376 v -15.5625 h 2.976563 v 5.609376 c 0,0 0,11.4375 11.441406,11.4375 4.867188,0 10.21875,0.08203 15.882812,0.152343 -2.710937,0.621094 -4.691406,3.164063 -4.410156,6.121094 0.246094,2.65625 2.386719,4.835937 5.039063,5.128906 3.453125,0.382813 6.375,-2.304687 6.375,-5.679687 0,-2.675782 -1.839844,-4.917969 -4.320313,-5.539063 47.546875,0.507813 115.042964,-0.898437 110.546874,-57.375 -0.0234,-0.296875 -0.23828,-0.660156 -0.54687,-1.039062 -0.95704,-1.191407 -2.40235,-1.824219 -3.89063,-1.824219 -0.51172,0 -1.03125,0.07422 -1.53516,0.230469"
         id="path9" />
    </clipPath>
    <clipPath
       id="clip8">
      <rect
         x="0"
         y="0"
         width="147"
         height="36"
         id="rect9" />
    </clipPath>
    <g
       id="surface4650"
       clip-path="url(#clip8)">
      <g
         clip-path="url(#clip9)"
         clip-rule="nonzero"
         id="g11">
        <g
           clip-path="url(#clip10)"
           clip-rule="nonzero"
           id="g10">
          <path
             style="fill:#000000;fill-opacity:1;fill-rule:nonzero;stroke:none"
             d="M -1.128906,0.804688 H 146.76953 V 38.515625 H -1.128906 Z m 0,0"
             id="path10" />
        </g>
      </g>
    </g>
  </defs>
  <path
     style="fill:#a8b54f;fill-opacity:1;fill-rule:nonzero;stroke:none"
     d="m 173.16406,86.543005 c 0,47.796885 -38.76562,86.546885 -86.582027,86.546885 C 38.765623,173.08989 1.8554381e-6,134.33989 1.8554381e-6,86.543005 1.8554381e-6,38.746135 38.765623,3.5366863e-5 86.582033,3.5366863e-5 134.39844,3.5366863e-5 173.16406,38.746135 173.16406,86.543005"
     id="path153"
     inkscape:export-filename="cuerdos.svg"
     inkscape:export-xdpi="13.305302"
     inkscape:export-ydpi="13.305302" />
  <path
     style="fill:#eeebbd;fill-opacity:1;fill-rule:nonzero;stroke:none"
     d="m 53.500003,119.93754 c 0,3.15625 -2.55859,5.71875 -5.71875,5.71875 -3.16016,0 -5.72266,-2.5625 -5.72266,-5.71875 0,-3.16015 2.5625,-5.72265 5.72266,-5.72265 3.16016,0 5.71875,2.5625 5.71875,5.72265"
     id="path154" />
  <path
     style="fill:#e6f0c2;fill-opacity:1;fill-rule:nonzero;stroke:none"
     d="m 30.613283,68.460975 c -11.441406,0 -11.441406,11.44141 -11.441406,11.44141 v 22.875005 c 0,0 0,11.4414 11.441406,11.4414 z m 0,0"
     id="path155" />
  <path
     style="fill:#fdfdff;fill-opacity:1;fill-rule:nonzero;stroke:none"
     d="M 30.613283,68.460975 H 123 c 2.46094,0 4.82812,0.96484 6.58984,2.6875 l 4.01563,3.92969 0.78515,-6.23438 c 0.375,-5.2539 3.94141,-9.73437 8.98047,-11.27734 l 10.38281,-3.17578 c 1.96485,-0.60156 4.13672,-0.008 5.42969,1.58984 0.30469,0.38281 0.51953,0.7461 0.54297,1.04297 5.12891,64.390635 -83.335937,57.195315 -129.113277,57.195315 z m 0,0"
     id="path156" />
  <path
     style="fill:#e6f0c2;fill-opacity:1;fill-rule:nonzero;stroke:none"
     d="m 99.277343,68.460975 c -8.89453,-1.09766 -12.0039,-11.4375 -34.33203,-11.4375 -22.32812,0 -22.88672,11.4375 -22.88672,11.4375 z m 0,0"
     id="path157" />
  <path
     style="fill:#d9e3b8;fill-opacity:1;fill-rule:nonzero;stroke:none"
     d="m 16.195314,85.511755 h 2.976563 v 11.65625 h -2.976563 z m 0,0"
     id="path158" />
  <path
     style="fill:#eeebbd;fill-opacity:1;fill-rule:nonzero;stroke:none"
     d="m 14.710939,114.21489 c 0.820313,0 1.488282,-0.66407 1.488282,-1.48438 V 69.949255 c 0,-0.82031 -0.667969,-1.48828 -1.488282,-1.48828 -0.820312,0 -1.488281,0.66797 -1.488281,1.48828 v 42.781255 c 0,0.82031 0.667969,1.48438 1.488281,1.48438"
     id="path159" />
  <path
     style="fill:#eeebbd;fill-opacity:1;fill-rule:nonzero;stroke:none"
     d="m 93.554693,102.77739 h -45.77344 c -3.16016,0 -5.72266,-2.5586 -5.72266,-5.718755 0,-3.16016 2.5625,-5.71875 5.72266,-5.71875 h 45.77344 c 3.16015,0 5.72265,2.55859 5.72265,5.71875 0,3.160155 -2.5625,5.718755 -5.72265,5.718755"
     id="path160" />
  <path
     style="fill:#e6f0c2;fill-opacity:1;fill-rule:nonzero;stroke:none"
     d="m 13.222658,69.949255 h 2.972656 v 3.42969 h -2.972656 z m 0,0"
     id="path161" />
  <path
     style="fill:#e6f0c2;fill-opacity:1;fill-rule:nonzero;stroke:none"
     d="m 13.222658,109.30082 h 2.972656 v 3.42969 h -2.972656 z m 0,0"
     id="path162" />
  <g
     clip-path="url(#clip6)"
     clip-rule="nonzero"
     id="g163"
     transform="translate(-62.917967,-554.4648)">
    <g
       clip-path="url(#clip7)"
       clip-rule="nonzero"
       id="g162">
      <use
         xlink:href="#surface4650"
         transform="translate(76,645)"
         mask="url(#mask1)"
         id="use162" />
    </g>
  </g>
</svg>
